<svg xmlns="http://www.w3.org/2000/svg" viewBox="0 0 64 64"><path fill="#231f20" d="M61.451 41.169c-.818-1.136-1.692-2.232-2.501-3.374-.375-.529-.696-1.03.374-1.308 2.171-.563 2.428-1.139 1.637-3.215-1.044-2.74-2.607-5.206-4.154-7.674-1.106-1.763-1.338-3.517-.286-5.387 1.543-2.745 1.964-5.733 1.503-8.788-.4-2.652-1.029-5.276-1.661-7.886-.533-2.201-1.674-2.523-3.324-.983-2.62 2.447-5.247 4.891-7.77 7.436-1.315 1.327-2.749 1.831-4.548 1.473a44.259 44.259 0 0 0-17.36-.014c-1.869.369-3.337-.145-4.695-1.519-2.519-2.549-5.147-4.992-7.773-7.432-1.58-1.467-2.702-1.136-3.24.962-.584 2.278-1.125 4.572-1.55 6.883-.579 3.152-.502 6.331 1.063 9.18 1.337 2.433 1.14 4.502-.357 6.734-1.559 2.323-2.988 4.747-3.917 7.413-.565 1.622-.19 2.515 1.371 2.744 1.649.242 1.148.921.556 1.734-.824 1.131-1.742 2.203-2.475 3.39-.722 1.168-.264 2.014.976 2.186.786.109 1.902-.688 2.272.212.279.678-.803 1.36-1.203 2.088-.189.343-.42.663-.612 1.004-1.437 2.55-1.122 3.308 1.76 3.929-1.969 2.395-2 3.219-.001 3.9 5.191 1.769 10.318 3.762 15.772 4.667 3.415.566 6.919.844 9.997 2.688.538.322 1.084.201 1.593-.106 2.114-1.274 4.478-1.792 6.87-2.085 6.288-.769 12.187-2.93 18.129-4.936 2.532-.854 2.677-1.626.884-3.629-.15-.167-.286-.348-.142-.591 2.623-.434 3.004-1.223 1.697-3.603-.377-.686-.848-1.318-1.249-1.992-.275-.462-.969-.871-.69-1.419.293-.576 1.001-.211 1.527-.175.741.051 1.507.158 1.926-.64.366-.699-.003-1.317-.399-1.867z"/><path fill="#f1f2f2" d="M44.77 57.062c-.492.311-1.16.381-1.76.478-3.485.559-6.989 1.034-10.293 2.37-.505.204-.954.193-1.453-.008-2.934-1.182-6.033-1.685-9.133-2.182-3.958-.635-6.944-4.207-6.941-8.677.09-2.329 1.171-4.444 3.552-5.891 2.586-1.572 5.457-1.931 8.368-2.213.585-.057.923.196 1.227.67.267.417.611.809.994 1.124 1.53 1.26 1.739 2.073.652 3.733-1.099 1.678-2.464 3.057-4.659 3.196-.628.04-1.342.154-1.264.997.074.798.799.865 1.42.862 2.489-.012 4.185-1.489 5.576-3.296.79-1.026 1.134-.972 1.891.014 1.317 1.716 2.929 3.122 5.248 3.277.715.048 1.631.099 1.729-.872.094-.928-.771-.91-1.435-1.008-2.543-.374-4.053-2.003-4.969-4.249-.37-.907-.025-1.538.666-2.433 2.35-3.046 5.174-1.867 7.845-1.168 2.875.752 5.443 2.153 6.419 5.335 1.048 3.416-.61 8.002-3.68 9.941z"/><path fill="#58595b" d="M29.918 39.997c.033-1.273 1.122-1.341 2.057-1.375 1.054.039 2.124.146 2.099 1.436-.024 1.234-1.028 1.716-2.108 1.699-1.077-.016-2.08-.518-2.048-1.76z"/><radialGradient id="a" cx="32.333" cy="-7.667" r="41.382" gradientUnits="userSpaceOnUse"><stop offset="0"/><stop offset="1" stop-color="#2484c6" stop-opacity="0"/></radialGradient><path fill="url(#a)" d="M58.48 41.533c-2.945.289-3.409 1.26-1.757 3.708.564.836 1.162 1.649 1.703 2.499.45.708.217 1.034-.62.945-.389-.041-.786-.092-1.172-.057-1.416.13-1.843 1.024-1.062 2.185.125.185.28.35.425.52 1.622 1.903 1.622 1.9-.878 2.698-2.105.673-4.208 1.353-6.645 2.137.813-1.629 1.549-2.813 1.899-4.186 1.129-4.433-.609-8.471-4.579-10.703-2.514-1.414-5.242-1.913-8.053-2.143-.975-.08-1.757-.324-2.469-1.148-1.58-1.828-4.884-1.873-6.472-.076-.755.854-1.564 1.146-2.605 1.233-2.693.226-5.317.683-7.749 2.003-4.92 2.672-6.596 8.29-3.894 13.235.256.468.748.838.667 1.727-2.757-.911-5.448-1.796-8.135-2.693-.511-.171-.557-.503-.207-.89.414-.457.854-.89 1.255-1.357.438-.51.947-1.04.586-1.788-.344-.713-1.038-.749-1.731-.779-.531-.023-1.26.431-1.547-.14-.299-.595.377-1.104.695-1.608.507-.805 1.131-1.54 1.596-2.367.985-1.751.432-2.728-1.579-2.934-.363-.037-.862.183-1.047-.269-.172-.422.286-.681.491-.998.546-.845 1.207-1.635 1.628-2.537.718-1.539.212-2.643-1.453-3.021-1.121-.255-1.02-.731-.666-1.522.985-2.207 2.2-4.289 3.519-6.305 1.728-2.643 1.935-5.213.285-8.034-1.249-2.134-1.425-4.622-1.072-7.034.378-2.582 1.036-5.123 1.628-7.954 2.591 2.197 4.852 4.262 6.989 6.466 1.21 1.248 2.41 2.477 4.113 3.114 1.197.448 1.383 1.364.687 2.441-.899 1.392-.532 2.675.374 3.887.311.416.73.769 1.29.473.563-.297.587-.869.295-1.308-.697-1.049-.502-1.984.141-2.948.148-.221.275-.551.227-.793-.469-2.351 1.261-2.098 2.636-2.249 1.172-.128 1.53.457.895 1.373-.955 1.378-1.041 2.654-.067 4.029.175.248.217.634.213.955-.008.582-.075 1.224.692 1.292.834.074 1.139-.579 1.311-1.266.052-.21.102-.511-.003-.656-1.192-1.623-.474-3.106.008-4.784.341-1.189.723-1.452 1.75-1.316.111.015.227-.004.335.02 1.052.235 2.576-.661 3.086.43.444.948.686 2.069 1.183 3.069.29.584-.227 1.046-.489 1.527-.422.773-.656 1.559-.136 2.381.252.399.593.704 1.102.606.541-.104.719-.525.644-1.013-.103-.662.124-1.203.471-1.733.698-1.066.593-2.107-.099-3.141-.304-.454-.766-.951-.353-1.517.402-.55 1.04-.241 1.571-.195 1.246.109 2.585.135 2.084 2.071-.083.322.117.792.325 1.101.594.882.703 1.705.086 2.639-.322.488-.386 1.115.273 1.447.555.279.971-.081 1.283-.508.85-1.163 1.26-2.41.425-3.744-.843-1.346-.46-2.204.953-2.728 1.133-.42 2.009-1.191 2.862-2.016a946.716 946.716 0 0 1 6.568-6.263c.354-.336.653-.777 1.325-.844.967 4.306 2.601 8.509 1.234 13.024-.211.698-.425 1.382-.813 2.016-1.426 2.329-1.36 4.669.04 6.99 1.331 2.206 2.715 4.381 3.796 6.73.421.914.738 1.568-.748 1.84-1.528.279-1.985 1.606-1.17 3.159.611 1.165 1.428 2.223 2.188 3.381-.272.106-.413.199-.562.214z"/><path fill="#f1f2f2" d="M45.175 24.54c-.879.478-1.694 1.073-2.528 1.632-1.991 1.336-3.983 2.672-5.96 4.027-.512.351-1.083.81-.674 1.501.485.819 1.16.381 1.735.035.62-.374 1.205-.806 1.819-1.192.402-.253.823-.486.94.285.102.673.199 1.481 1.148 1.251.813-.197.826-1.025.751-1.674-.165-1.428.467-2.3 1.677-2.936.686-.36 1.299-.864 1.935-1.315.326-.231.575-.528.633-1.001-.167-.892-.793-.984-1.476-.613zm-18.117 5.486c-2.31-1.564-4.603-3.156-6.95-4.662-.762-.489-1.75-1.769-2.544-.604-.804 1.18.757 1.628 1.502 2.124 1.468.978 2.983 1.808 2.551 4.003-.106.539.16 1.172.856 1.232.729.063.927-.52.983-1.105.09-.941.525-.786 1.093-.403.694.468 1.375.966 2.113 1.351.71.369 1.306.246 1.445-.646-.093-.689-.59-.979-1.049-1.29z"/></svg>